<svg xmlns="http://www.w3.org/2000/svg" viewBox="0 0 1000 1000" width="100%" height="100%" style="background: #FFFFFF; border-radius: 16px;">
  <rect x="0" y="0" width="1000" height="1000" fill="#FFFFFF" />
  <!-- Triangle T1 -->
  <path id="mode2_t1" d="M 390 309.47 L 610 309.47 L 500 635.97 Z" fill="none" stroke="#FF0000" stroke-width="2.5" />
  <text x="500" y="301.47" fill="#FF0000" font-weight="bold" font-size="16" font-family="Outfit, sans-serif" text-anchor="middle">T1</text>
  <!-- Triangle T2 -->
  <path id="mode2_t2" d="M 459.17 364.03 L 540.83 364.03 L 500 690.53 Z" fill="none" stroke="#0000FF" stroke-width="2.5" />
  <text x="500" y="356.03" fill="#0000FF" font-weight="bold" font-size="16" font-family="Outfit, sans-serif" text-anchor="middle">T2</text>
  <!-- Triangle T3 -->
  <path id="mode2_t3" d="M 327.05 364.03 L 672.95 364.03 L 500 720 Z" fill="none" stroke="#008000" stroke-width="2.5" />
  <text x="500" y="356.03" fill="#008000" font-weight="bold" font-size="16" font-family="Outfit, sans-serif" text-anchor="middle">T3</text>
  <!-- Triangle T4 -->
  <path id="mode2_t4" d="M 393.11 500 L 606.89 500 L 500 635.97 Z" fill="none" stroke="#FFA500" stroke-width="2.5" />
  <text x="500" y="492" fill="#FFA500" font-weight="bold" font-size="16" font-family="Outfit, sans-serif" text-anchor="middle">T4</text>
  <!-- Triangle T5 -->
  <path id="mode2_t5" d="M 393.11 500 L 606.89 500 L 500 296.29 Z" fill="none" stroke="#800080" stroke-width="2.5" />
  <text x="500" y="492" fill="#800080" font-weight="bold" font-size="16" font-family="Outfit, sans-serif" text-anchor="middle">T5</text>
  <!-- Triangle T6 -->
  <path id="mode2_t6" d="M 393.11 500 L 606.89 500 L 500 364.03 Z" fill="none" stroke="#00FFFF" stroke-width="2.5" />
  <text x="500" y="492" fill="#00FFFF" font-weight="bold" font-size="16" font-family="Outfit, sans-serif" text-anchor="middle">T6</text>
  <!-- Triangle T7 -->
  <path id="mode2_t7" d="M 327.05 635.97 L 672.95 635.97 L 500 280 Z" fill="none" stroke="#A52A2A" stroke-width="2.5" />
  <text x="500" y="627.97" fill="#A52A2A" font-weight="bold" font-size="16" font-family="Outfit, sans-serif" text-anchor="middle">T7</text>
  <!-- Triangle T8 -->
  <path id="mode2_t8" d="M 393.11 500 L 606.89 500 L 500 364.03 Z" fill="none" stroke="#FFC0CB" stroke-width="2.5" />
  <text x="500" y="492" fill="#FFC0CB" font-weight="bold" font-size="16" font-family="Outfit, sans-serif" text-anchor="middle">T8</text>
  <!-- Triangle T9 -->
  <path id="mode2_t9" d="M 327.05 635.97 L 672.95 635.97 L 500 364.03 Z" fill="none" stroke="#000000" stroke-width="2.5" />
  <text x="500" y="627.97" fill="#000000" font-weight="bold" font-size="16" font-family="Outfit, sans-serif" text-anchor="middle">T9</text>
  <rect x="20" y="20" width="460" height="40" rx="8" fill="#F1F5F9" stroke="#CBD5E1" stroke-width="1" />
  <text x="35" y="45" fill="#0F172A" font-size="16" font-weight="bold" font-family="Outfit, sans-serif">MODE 2: PRIMARY TRIANGLES (t1..t9)</text>
</svg>