<svg xmlns="http://www.w3.org/2000/svg" viewBox="0 0 1000 1000" width="100%" height="100%">
  <defs>
    <!-- Consecrated Dark Antique Bronze Gradients -->
    <linearGradient id="kuberBronze" x1="0%" y1="0%" x2="100%" y2="100%">
      <stop offset="0%" stop-color="#1A0E05" />
      <stop offset="35%" stop-color="#3E1E07" />
      <stop offset="70%" stop-color="#542608" />
      <stop offset="100%" stop-color="#1C0D04" />
    </linearGradient>
    <radialGradient id="kuberAura" cx="50%" cy="50%" r="50%">
      <stop offset="0%" stop-color="#6B3508" stop-opacity="0.10" />
      <stop offset="100%" stop-color="#6B3508" stop-opacity="0" />
    </radialGradient>
  </defs>

  <!-- Ambient Sacred Aura -->
  <circle cx="500" cy="500" r="480" fill="url(#kuberAura)" />

  <!-- 1. Concentric Bhupura (Outer Sacred Earth Rampart with 4 Directional Portals) -->
  <g id="kuber-bhupura" stroke="url(#kuberBronze)" stroke-width="2.8" fill="none" stroke-linejoin="round" stroke-linecap="round">
    <!-- Outer Step (Line 1) -->
    <path d="
      M 160 50 L 430 50 L 430 20 L 570 20 L 570 50 L 840 50 L 840 160 L 950 160 L 950 430 L 980 430 L 980 570 L 950 570 L 950 840 L 840 840 L 840 950 L 570 950 L 570 980 L 430 980 L 430 950 L 160 950 L 160 840 L 50 840 L 50 570 L 20 570 L 20 430 L 50 430 L 50 160 L 160 160 Z
    " />
    <!-- Middle Step (Line 2) -->
    <path d="
      M 175 65 L 435 65 L 435 40 L 565 40 L 565 65 L 825 65 L 825 175 L 935 175 L 935 435 L 960 435 L 960 565 L 935 565 L 935 825 L 825 825 L 825 935 L 565 935 L 565 960 L 435 960 L 435 935 L 175 935 L 175 825 L 65 825 L 65 565 L 40 565 L 40 435 L 65 435 L 65 175 L 175 175 Z
    " stroke-width="2.2" />
    <!-- Inner Step (Line 3) -->
    <path d="
      M 190 80 L 440 80 L 440 60 L 560 60 L 560 80 L 810 80 L 810 190 L 920 190 L 920 440 L 940 440 L 940 560 L 920 560 L 920 810 L 810 810 L 810 920 L 560 920 L 560 940 L 440 940 L 440 920 L 190 920 L 190 810 L 80 810 L 80 560 L 60 560 L 60 440 L 80 440 L 80 190 L 190 190 Z
    " stroke-width="2.6" />
  </g>

  <!-- 2. Concentric Outer Girdles (Trivalaya) -->
  <g id="kuber-trivalaya" stroke="url(#kuberBronze)" fill="none">
    <circle cx="500" cy="500" r="410" stroke-width="2.8" />
    <circle cx="500" cy="500" r="396" stroke-width="1.8" />
    <circle cx="500" cy="500" r="382" stroke-width="2.6" />
  </g>

  <!-- 3. Canonical Ashtadala Padma (Exact Ogee Lotus Petals matching Classical Sketch) -->
  <g id="kuber-ashtadala" stroke="url(#kuberBronze)" fill="none" stroke-linejoin="round" stroke-linecap="round">
    <!-- Petal 0 (North / 0°) -->
    <path d="M 400.50 259.79 C 387.11 205.92, 467.03 157.58, 500.00 118.00 C 532.97 157.58, 612.89 205.92, 599.50 259.79" stroke-width="2.8" />
    <line x1="500.00" y1="260.00" x2="500.00" y2="118.00" stroke-width="1.8" opacity="0.75" />

    <!-- Petal 1 (North-East / 45°) -->
    <path d="M 599.50 259.79 C 628.12 212.23, 718.81 234.56, 770.11 229.89 C 765.44 281.19, 787.77 371.88, 740.21 400.50" stroke-width="2.8" />
    <line x1="683.85" y1="316.15" x2="770.11" y2="229.89" stroke-width="1.8" opacity="0.75" />

    <!-- Petal 2 (East / 90°) -->
    <path d="M 740.21 400.50 C 794.08 387.11, 842.42 467.03, 882.00 500.00 C 842.42 532.97, 794.08 612.89, 740.21 599.50" stroke-width="2.8" />
    <line x1="760.00" y1="500.00" x2="882.00" y2="500.00" stroke-width="1.8" opacity="0.75" />

    <!-- Petal 3 (South-East / 135°) -->
    <path d="M 740.21 599.50 C 787.77 628.12, 765.44 718.81, 770.11 770.11 C 718.81 765.44, 628.12 787.77, 599.50 740.21" stroke-width="2.8" />
    <line x1="683.85" y1="683.85" x2="770.11" y2="770.11" stroke-width="1.8" opacity="0.75" />

    <!-- Petal 4 (South / 180°) -->
    <path d="M 599.50 740.21 C 612.89 794.08, 532.97 842.42, 500.00 882.00 C 467.03 842.42, 387.11 794.08, 400.50 740.21" stroke-width="2.8" />
    <line x1="500.00" y1="760.00" x2="500.00" y2="882.00" stroke-width="1.8" opacity="0.75" />

    <!-- Petal 5 (South-West / 225°) -->
    <path d="M 400.50 740.21 C 371.88 787.77, 281.19 765.44, 229.89 770.11 C 234.56 718.81, 212.23 628.12, 259.79 599.50" stroke-width="2.8" />
    <line x1="316.15" y1="683.85" x2="229.89" y2="770.11" stroke-width="1.8" opacity="0.75" />

    <!-- Petal 6 (West / 270°) -->
    <path d="M 259.79 599.50 C 205.92 612.89, 157.58 532.97, 118.00 500.00 C 157.58 467.03, 205.92 387.11, 259.79 400.50" stroke-width="2.8" />
    <line x1="240.00" y1="500.00" x2="118.00" y2="500.00" stroke-width="1.8" opacity="0.75" />

    <!-- Petal 7 (North-West / 315°) -->
    <path d="M 259.79 400.50 C 212.23 371.88, 234.56 281.19, 229.89 229.89 C 281.19 234.56, 371.88 212.23, 400.50 259.79" stroke-width="2.8" />
    <line x1="316.15" y1="316.15" x2="229.89" y2="229.89" stroke-width="1.8" opacity="0.75" />
  </g>

  <!-- 4. Inner Base Rings (Enclosing the Magic Square) -->
  <g id="kuber-inner-rings" stroke="url(#kuberBronze)" fill="none">
    <circle cx="500" cy="500" r="260" stroke-width="2.8" />
    <circle cx="500" cy="500" r="248" stroke-width="1.8" />
  </g>

  <!-- 5. Yaksharaja Kubera 3x3 Magic Square Matrix (All rows/cols/diagonals = 57) -->
  <g id="kuber-magic-square" stroke="url(#kuberBronze)">
    <!-- Outer Grid Border -->
    <rect x="335" y="335" width="330" height="330" fill="none" stroke-width="3" rx="4" />
    <!-- Internal Horizontal Dividers -->
    <line x1="335" y1="445" x2="665" y2="445" stroke-width="2.6" />
    <line x1="335" y1="555" x2="665" y2="555" stroke-width="2.6" />
    <!-- Internal Vertical Dividers -->
    <line x1="445" y1="335" x2="445" y2="665" stroke-width="2.6" />
    <line x1="555" y1="335" x2="555" y2="665" stroke-width="2.6" />

    <!-- Sacred Sanskrit Numerals (Devanagari Inscriptions) -->
    <!-- Row 1: 20 (२०), 9 (९), 28 (२८) -> Sum = 57 -->
    <text x="390" y="405" text-anchor="middle" fill="#0F0C08" font-size="34" font-family="'Cinzel', serif" font-weight="900">२०</text>
    <text x="500" y="405" text-anchor="middle" fill="#0F0C08" font-size="34" font-family="'Cinzel', serif" font-weight="900">९</text>
    <text x="610" y="405" text-anchor="middle" fill="#0F0C08" font-size="34" font-family="'Cinzel', serif" font-weight="900">२८</text>

    <!-- Row 2: 25 (२५), 19 (१९), 13 (१३) -> Sum = 57 -->
    <text x="390" y="515" text-anchor="middle" fill="#0F0C08" font-size="34" font-family="'Cinzel', serif" font-weight="900">२५</text>
    <text x="500" y="515" text-anchor="middle" fill="#541B08" font-size="36" font-family="'Cinzel', serif" font-weight="900">१९</text>
    <text x="610" y="515" text-anchor="middle" fill="#0F0C08" font-size="34" font-family="'Cinzel', serif" font-weight="900">१३</text>

    <!-- Row 3: 12 (१२), 29 (२९), 16 (१६) -> Sum = 57 -->
    <text x="390" y="625" text-anchor="middle" fill="#0F0C08" font-size="34" font-family="'Cinzel', serif" font-weight="900">१२</text>
    <text x="500" y="625" text-anchor="middle" fill="#0F0C08" font-size="34" font-family="'Cinzel', serif" font-weight="900">२९</text>
    <text x="610" y="625" text-anchor="middle" fill="#0F0C08" font-size="34" font-family="'Cinzel', serif" font-weight="900">१६</text>
  </g>

  <!-- 6. Central Parama Bindu -->
  <circle cx="500" cy="500" r="14" fill="#8C2300" opacity="0.25" className="animate-pulse" />
  <circle cx="500" cy="500" r="6" fill="#4D0E00" stroke="#1A0E05" stroke-width="2" />
</svg>
